<?xml version="1.0" encoding="UTF-8"?>
<svg xmlns="http://www.w3.org/2000/svg" xmlns:xlink="http://www.w3.org/1999/xlink" width="1300pt" height="975pt" viewBox="0 0 1300 975" version="1.1">
<g id="surface1">
<path style="fill-rule:nonzero;fill:rgb(18.823529%,20%,23.921569%);fill-opacity:1;stroke-width:0.1;stroke-linecap:butt;stroke-linejoin:miter;stroke:rgb(18.823529%,20%,23.921569%);stroke-opacity:1;stroke-miterlimit:4;" d="M 0.000171474 119.27017 C 1.42532 119.190208 2.820104 118.822787 4.100004 118.190174 C 4.980095 117.717487 5.65623 116.938108 5.999865 115.999818 C 6.378421 114.70271 6.524174 113.348414 6.430042 112.000191 L 6.430042 83.999763 L 28.220242 83.999763 C 32.073103 83.999763 35.100026 85.089881 37.299998 87.270115 C 39.49997 89.449844 40.603246 92.869998 40.609825 97.530073 L 40.609825 125.099818 L 30.240046 125.099818 L 30.240046 97.000197 C 30.240046 93.50008 28.606894 91.750022 25.340085 91.750022 L 16.849923 91.750022 L 16.849923 110.609962 C 16.982013 113.606013 16.403046 116.590931 15.16009 119.319767 C 14.036571 121.479758 12.219202 123.198945 9.999999 124.19999 C 7.08644 125.434343 3.980061 126.151978 0.820037 126.32 Z M 0.000171474 119.27017 " transform="matrix(7.718493,0,0,7.718493,0.643208,0)"/>
<path style="fill-rule:nonzero;fill:rgb(18.823529%,20%,23.921569%);fill-opacity:1;stroke-width:0.1;stroke-linecap:butt;stroke-linejoin:miter;stroke:rgb(18.823529%,20%,23.921569%);stroke-opacity:1;stroke-miterlimit:4;" d="M 46.660128 92.409963 L 45.790159 83.999763 L 56.159938 83.999763 L 57.000047 92.409963 L 57.000047 125.099818 L 46.660128 125.099818 Z M 46.660128 92.409963 " transform="matrix(7.718493,0,0,7.718493,0.643208,0)"/>
<path style="fill-rule:nonzero;fill:rgb(18.823529%,20%,23.921569%);fill-opacity:1;stroke-width:0.1;stroke-linecap:butt;stroke-linejoin:miter;stroke:rgb(18.823529%,20%,23.921569%);stroke-opacity:1;stroke-miterlimit:4;" d="M 77.690008 100.19008 C 77.671789 98.531118 77.852969 96.875699 78.230006 95.259754 C 78.493172 94.013761 78.992177 92.829005 79.700196 91.769759 L 61.269926 91.769759 L 61.269926 83.999763 L 94.999796 83.999763 L 94.999796 91.779881 L 89.420156 91.779881 C 88.402916 94.466205 87.94035 97.330167 88.059787 100.200202 L 88.059787 125.099818 L 77.690008 125.099818 Z M 77.690008 100.19008 " transform="matrix(7.718493,0,0,7.718493,0.643208,0)"/>
<path style="fill-rule:nonzero;fill:rgb(18.823529%,20%,23.921569%);fill-opacity:1;stroke-width:0.1;stroke-linecap:butt;stroke-linejoin:miter;stroke:rgb(18.823529%,20%,23.921569%);stroke-opacity:1;stroke-miterlimit:4;" d="M 99.999962 92.409963 L 99.140116 83.999763 L 109.509895 83.999763 L 110.370247 92.420085 L 110.370247 125.099818 L 99.999962 125.099818 Z M 99.999962 92.409963 " transform="matrix(7.718493,0,0,7.718493,0.643208,0)"/>
<path style="fill-rule:nonzero;fill:rgb(18.823529%,20%,23.921569%);fill-opacity:1;stroke-width:0.1;stroke-linecap:butt;stroke-linejoin:miter;stroke:rgb(18.823529%,20%,23.921569%);stroke-opacity:1;stroke-miterlimit:4;" d="M 144.2899 119.659859 C 138.723419 123.433264 130.609788 125.48647 119.95002 125.819983 L 115.949887 91.819862 L 114.999956 83.999763 L 137.110005 83.999763 C 141.776658 83.999763 145.423541 85.33331 148.050147 87.999897 C 150.676753 90.666484 152.043195 94.333104 152.14998 98.999757 L 152.229942 101.379897 C 152.496651 109.793133 149.849802 115.886454 144.2899 119.659859 Z M 137.000183 114.48003 C 138.884355 113.340822 140.301913 111.568496 140.999811 109.479864 C 141.825749 106.767729 142.164323 103.93059 141.999844 101.10003 L 141.999844 98.999757 C 142.100556 97.130262 141.568655 95.28101 140.490178 93.750088 C 139.518486 92.4712 137.984528 91.747491 136.380223 91.810246 L 126.450237 91.810246 L 128.999917 116.610162 C 131.798593 116.551456 134.542612 115.820662 137.000183 114.48003 Z M 137.000183 114.48003 " transform="matrix(7.718493,0,0,7.718493,0.643208,0)"/>
<path style="fill-rule:nonzero;fill:rgb(18.823529%,20%,23.921569%);fill-opacity:1;stroke-width:0.1;stroke-linecap:butt;stroke-linejoin:miter;stroke:rgb(18.823529%,20%,23.921569%);stroke-opacity:1;stroke-miterlimit:4;" d="M 157.89005 92.409963 L 156.999838 83.999763 L 167.399982 83.999763 L 168.259829 92.420085 L 168.259829 103.659832 L 168.189988 108.189841 L 157.89005 109.990002 Z M 157.89005 92.409963 " transform="matrix(7.718493,0,0,7.718493,0.643208,0)"/>
<path style="fill-rule:nonzero;fill:rgb(18.823529%,20%,23.921569%);fill-opacity:0.701961;stroke-width:0.1;stroke-linecap:butt;stroke-linejoin:miter;stroke:rgb(18.823529%,20%,23.921569%);stroke-opacity:1;stroke-miterlimit:4;" d="M 90.719795 59.920013 L 90.719795 43.069755 C 90.723337 42.118813 91.234488 41.241759 92.05992 40.770084 L 129.220066 19.889833 L 129.220066 42.779766 L 94.639966 62.21007 C 93.826173 62.668081 92.830189 62.659983 92.023482 62.188814 C 91.216775 61.717644 90.720807 60.854255 90.719795 59.920013 Z M 90.719795 59.920013 " transform="matrix(7.718493,0,0,7.718493,0.643208,0)"/>
<path style="fill-rule:nonzero;fill:rgb(18.431373%,71.372549%,48.627451%);fill-opacity:1;stroke-width:0.1;stroke-linecap:butt;stroke-linejoin:miter;stroke:rgb(18.431373%,71.372549%,48.627451%);stroke-opacity:1;stroke-miterlimit:4;" d="M 90.719795 2.630148 L 90.719795 19.4799 C 90.723337 20.430843 91.234488 21.307896 92.05992 21.780078 L 129.220066 42.659823 L 129.220066 19.76989 L 94.639966 0.340092 C 93.826173 -0.118425 92.830189 -0.110328 92.023482 0.360842 C 91.216775 0.832012 90.720807 1.695907 90.719795 2.630148 Z M 90.719795 2.630148 " transform="matrix(7.718493,0,0,7.718493,0.643208,0)"/>
<path style="fill-rule:nonzero;fill:rgb(18.823529%,20%,23.921569%);fill-opacity:0.701961;stroke-width:0.1;stroke-linecap:butt;stroke-linejoin:miter;stroke:rgb(18.823529%,20%,23.921569%);stroke-opacity:1;stroke-miterlimit:4;" d="M 81.430011 2.639764 L 81.430011 19.490022 C 81.42495 20.440965 80.909751 21.315488 80.079764 21.780078 L 42.930246 42.659823 L 42.930246 19.780012 L 77.50984 0.340092 C 78.326163 -0.112352 79.321135 -0.100206 80.125818 0.371976 C 80.931007 0.844158 81.426975 1.706535 81.430011 2.639764 Z M 81.430011 2.639764 " transform="matrix(7.718493,0,0,7.718493,0.643208,0)"/>
<path style="fill-rule:nonzero;fill:rgb(18.431373%,71.372549%,48.627451%);fill-opacity:1;stroke-width:0.1;stroke-linecap:butt;stroke-linejoin:miter;stroke:rgb(18.431373%,71.372549%,48.627451%);stroke-opacity:1;stroke-miterlimit:4;" d="M 81.430011 59.789948 L 81.430011 42.940196 C 81.42495 41.989254 80.909751 41.114731 80.079764 40.65014 L 42.930246 19.76989 L 42.930246 42.650207 L 77.50984 62.090126 C 78.326163 62.542571 79.321135 62.530424 80.125818 62.058243 C 80.931007 61.585555 81.426975 60.723178 81.430011 59.789948 Z M 81.430011 59.789948 " transform="matrix(7.718493,0,0,7.718493,0.643208,0)"/>
</g>
</svg>
